<svg xmlns="http://www.w3.org/2000/svg" viewBox="0 0 306.14119 306.141"><defs><style>.cls-1{fill:#0055c8;}.cls-2{fill:#fff;}</style></defs><g id="Layer_2" data-name="Layer 2"><g id="Layer_1-2" data-name="Layer 1"><path class="cls-1" d="M237.25812,306.141H68.88346A68.87858,68.87858,0,0,1,0,237.25773V68.88327A68.88267,68.88267,0,0,1,68.88346,0H237.25812a68.88656,68.88656,0,0,1,68.88307,68.88327V237.25773A68.88246,68.88246,0,0,1,237.25812,306.141"/><path class="cls-2" d="M226.92323,213.15018l-23.9084-43.25a13.07206,13.07206,0,0,0-1.93008-2.72768,12.60119,12.60119,0,0,0-5.6162-3.49233l-42.90988-12.73928,7.73348-36.42621a22.256,22.256,0,0,0,.52734-3.346c0-.52734.0211-1.06919-.02109-1.56884-.04087-.49307-.13843-.97163-.2083-1.45811a12.16816,12.16816,0,0,0-.93735-2.81073,12.45839,12.45839,0,0,0-3.7415-4.66567,12.60445,12.60445,0,0,0-5.45668-2.38754,13.01061,13.01061,0,0,0-2.95048-.16743c-.52076.05669-1.04151.11206-1.56885.2017l-1.63872.42979-37.43211,12.65623c-.36782.12524-.73564.26367-1.09028.42319a12.56227,12.56227,0,0,0-3.818,2.61694,16.14955,16.14955,0,0,0-1.499,1.79165L79.908,143.42228c-1.2498,1.6519-2.31767,3.63734-2.07509,5.65839.31245,2.00522,1.88789,3.62416,3.53979,4.87264,1.6519,1.24981,3.63735,2.32559,5.65839,2.07642,2.00654-.31245,3.62416-1.88789,4.874-3.54111l20.46486-27.08169,16.00222-5.4079-5.2352,24.64536-1.78374,8.40717a13.17747,13.17747,0,0,0,.15293,7.27469,12.60334,12.60334,0,0,0,4.01176,5.88119,13.21591,13.21591,0,0,0,6.72758,2.78965l4.638.791,7.60824,1.292,43.74309,7.41444,25.42847,42.30608c1.06259,1.76923,2.50619,3.50551,4.47186,4.02626,1.98545.46538,4.06714-.38891,5.84428-1.4581,1.81274-.99932,3.59648-2.381,4.19369-4.32421C228.70038,217.07889,227.92255,214.9616,226.92323,213.15018Z"/><path class="cls-2" d="M155.01477,91.9668c4.21215,0,8.7552-.69214,11.7281-3.5767,2.878-2.9729,3.5767-7.50936,3.5767-11.7281,0-4.21743-.69873-8.7539-3.5767-11.72679-2.9729-2.88457-7.516-3.5833-11.7281-3.5833-4.21743,0-8.76049.69873-11.73338,3.5833-2.878,2.97289-3.57671,7.50936-3.57671,11.72679,0,4.21874.69873,8.7552,3.57671,11.7281C146.25428,91.27466,150.79734,91.9668,155.01477,91.9668Z"/><path class="cls-2" d="M185.20778,200.39244l-4.53251-.79892a4.52545,4.52545,0,0,0-5.16269,3.16933A39.01344,39.01344,0,1,1,110.424,164.62673a4.52821,4.52821,0,0,0,.22281-6.11322l-2.97422-3.54638a4.64372,4.64372,0,0,0-6.82645-.27685A52.72086,52.72086,0,0,0,85.594,199.11891c3.09286,24.44629,23.6566,43.88942,48.22682,45.76544A52.77451,52.77451,0,0,0,188.84908,206.209,4.64269,4.64269,0,0,0,185.20778,200.39244Z"/></g></g></svg>