<svg xmlns="http://www.w3.org/2000/svg" viewBox="0 0 306.14096 306.14756"><defs><style>.cls-1{fill:#fff;}.cls-2{fill:#dc1400;}</style></defs><g id="Layer_2" data-name="Layer 2"><g id="Layer_1-2" data-name="Layer 1"><path class="cls-1" d="M303.07974,237.26142A65.89589,65.89589,0,0,1,237.26208,303.087H68.87625a65.89363,65.89363,0,0,1-65.815-65.82557V68.8835a65.89307,65.89307,0,0,1,65.815-65.82293H237.26208A65.89533,65.89533,0,0,1,303.07974,68.8835Z"/><path class="cls-2" d="M233.18752,45.92233a42.09448,42.09448,0,1,0,42.09415,42.09646A42.14382,42.14382,0,0,0,233.18752,45.92233Zm31.37921,48.98224H201.808a1.53074,1.53074,0,0,1-1.53061-1.53061V82.65835a1.52961,1.52961,0,0,1,1.53061-1.52929h62.75874a1.5299,1.5299,0,0,1,1.53094,1.52929V93.374A1.531,1.531,0,0,1,264.56673,94.90457Z"/><path d="M210.107,213.02754l-23.9084-43.25a13.07206,13.07206,0,0,0-1.93008-2.72768,12.60119,12.60119,0,0,0-5.6162-3.49233l-42.90988-12.73928L143.476,114.392a22.256,22.256,0,0,0,.52734-3.346c0-.52734.0211-1.06919-.02109-1.56884-.04087-.49307-.13843-.97163-.2083-1.45811a12.16816,12.16816,0,0,0-.93735-2.81073,12.45839,12.45839,0,0,0-3.7415-4.66567,12.60445,12.60445,0,0,0-5.45668-2.38754,13.01061,13.01061,0,0,0-2.95048-.16744c-.52076.05669-1.04151.11206-1.56885.20171l-1.63872.42979L90.04822,111.27542c-.36782.12525-.73564.26368-1.09028.4232a12.56227,12.56227,0,0,0-3.818,2.61694,16.15036,16.15036,0,0,0-1.499,1.79164L63.09177,143.29964c-1.2498,1.6519-2.31767,3.63734-2.07509,5.65838.31245,2.00523,1.88789,3.62417,3.53979,4.87265,1.6519,1.2498,3.63735,2.32558,5.65839,2.07641,2.00654-.31245,3.62416-1.88788,4.874-3.5411l20.46486-27.08169,16.00222-5.4079-5.2352,24.64536-1.78373,8.40717a13.17738,13.17738,0,0,0,.15292,7.27469,12.60333,12.60333,0,0,0,4.01177,5.88119,13.21574,13.21574,0,0,0,6.72757,2.78964l4.638.791,7.60824,1.292,43.74309,7.41444L196.847,220.678c1.06259,1.76923,2.50619,3.50551,4.47186,4.02626,1.98545.46538,4.06714-.38892,5.84428-1.4581,1.81274-.99932,3.59648-2.381,4.1937-4.32422C211.88419,216.95624,211.10636,214.839,210.107,213.02754Z"/><path d="M138.19858,91.84416c4.21215,0,8.75521-.69214,11.7281-3.5767,2.878-2.9729,3.5767-7.50936,3.5767-11.72811,0-4.21742-.69873-8.75389-3.5767-11.72678-2.97289-2.88457-7.516-3.5833-11.7281-3.5833-4.21743,0-8.76049.69873-11.73338,3.5833-2.878,2.97289-3.5767,7.50936-3.5767,11.72678,0,4.21875.69872,8.75521,3.5767,11.72811C129.43809,91.152,133.98115,91.84416,138.19858,91.84416Z"/><path d="M168.39159,200.2698l-4.53251-.79893a4.52546,4.52546,0,0,0-5.16269,3.16934,39.01344,39.01344,0,1,1-65.0886-38.13612,4.52822,4.52822,0,0,0,.2228-6.11322l-2.97422-3.54638a4.64373,4.64373,0,0,0-6.82645-.27686,52.72089,52.72089,0,0,0-15.25207,44.42864c3.09286,24.44629,23.6566,43.88942,48.22682,45.76544a52.77452,52.77452,0,0,0,55.02822-38.67532A4.64269,4.64269,0,0,0,168.39159,200.2698Z"/><path d="M237.26208,0H68.87756A68.88282,68.88282,0,0,0,0,68.88547V237.2634a68.8817,68.8817,0,0,0,68.87756,68.88416H237.26208A68.88283,68.88283,0,0,0,306.141,237.2634V68.88547A68.884,68.884,0,0,0,237.26208,0Zm65.81634,237.26208a65.89364,65.89364,0,0,1-65.815,65.82557H68.87756A65.89589,65.89589,0,0,1,3.05991,237.26208V68.88416A65.89533,65.89533,0,0,1,68.87756,3.06123H237.2634a65.89308,65.89308,0,0,1,65.815,65.82293Z"/></g></g></svg>